<svg width="73" height="39" viewBox="0 0 73 39" fill="none" xmlns="http://www.w3.org/2000/svg">
<g clip-path="url(#clip0_401_2)">
<path d="M34.9314 19.473C34.9314 8.20264 43.5112 0 53.939 0C64.3667 0 73 8.20264 73 19.473C73 30.7434 64.3667 39 53.939 39C43.5112 39 34.9314 30.6895 34.9314 19.473ZM69.8628 19.473C69.8628 9.86834 62.9288 2.85205 53.933 2.85205C44.9373 2.85205 38.0627 9.86234 38.0627 19.473C38.0627 29.0837 44.8957 36.1959 53.933 36.1959C62.9704 36.1959 69.8628 29.0298 69.8628 19.473ZM54.0281 20.7672C53.9093 20.7972 53.7904 20.7972 53.6775 20.7972H52.0733V29.9825H47.4387V8.63405H53.4399C58.9478 8.63405 61.3661 9.87433 61.3661 14.4939C61.3661 17.4419 60.1956 18.9098 58.1873 19.7367L61.6573 29.9825H56.8801L54.0281 20.7672ZM53.4161 17.9392C56.0067 17.9392 56.5355 17.352 56.5355 14.8774C56.5355 12.4028 56.0067 11.7557 53.4161 11.7557H52.0733V17.9392H53.4161Z" fill="black"/>
<path d="M0 19.473C0 8.20264 8.57985 0 19.0076 0C29.4353 0 38.0686 8.20264 38.0686 19.473C38.0686 30.7434 29.4353 39 19.0076 39C8.57985 39 0 30.6895 0 19.473ZM34.9314 19.473C34.9314 9.86834 27.9974 2.85205 19.0016 2.85205C10.0059 2.85205 3.13129 9.86834 3.13129 19.473C3.13129 29.0777 9.96427 36.1959 19.0016 36.1959C28.039 36.1959 34.9314 29.0298 34.9314 19.473ZM12.0676 8.63405H17.433L22.0081 23.9788V8.63405H26.1139V29.9885H20.7544L16.1793 14.6437V29.9885H12.0676V8.63405Z" fill="black"/>
</g>
<defs>
<clipPath id="clip0_401_2">
<rect width="73" height="39" fill="white"/>
</clipPath>
</defs>
</svg>
